<svg width="41" height="41" viewBox="0 0 41 41" fill="none" xmlns="http://www.w3.org/2000/svg">
<path fill-rule="evenodd" clip-rule="evenodd" d="M22.6981 32.0962L18.9481 32.6475V23.585H16.4481V20.4418H18.9481C18.9481 20.4418 18.9481 18.8343 18.9481 17.1756C18.9481 16.2231 19.3262 15.31 20 14.6368C20.6731 13.9631 21.5862 13.585 22.5387 13.585H25.1981V16.085C25.1981 16.085 24.6812 16.085 24.1169 16.085C23.3331 16.085 22.6981 16.72 22.6981 17.5037V20.46L26.4481 20.4418L25.1981 23.585H22.6981V32.0962Z" fill="white"/>
<path d="M20.8231 34.21C13.2412 34.21 7.07312 28.0418 7.07312 20.46C7.07312 12.8781 13.2412 6.70996 20.8231 6.70996C28.405 6.70996 34.5731 12.8781 34.5731 20.46C34.5731 28.0418 28.405 34.21 20.8231 34.21ZM20.8231 9.20996C14.62 9.20996 9.57312 14.2568 9.57312 20.46C9.57312 26.6631 14.62 31.71 20.8231 31.71C27.0262 31.71 32.0731 26.6631 32.0731 20.46C32.0731 14.2568 27.0262 9.20996 20.8231 9.20996Z" fill="white"/>
</svg>
