<svg width="41" height="41" viewBox="0 0 41 41" fill="none" xmlns="http://www.w3.org/2000/svg">
<path d="M20.7108 7.95996C9.22269 7.95996 8.32312 8.85953 8.32312 20.3477V20.5723C8.32312 32.0604 9.22269 32.96 20.7108 32.96H20.9354C32.4236 32.96 33.3231 32.0604 33.3231 20.5723V20.46C33.3231 8.86746 32.4156 7.95996 20.8231 7.95996H20.7108ZM18.3231 10.46H23.3231C30.2787 10.46 30.8231 11.0043 30.8231 17.96V22.96C30.8231 29.9156 30.2787 30.46 23.3231 30.46H18.3231C11.3675 30.46 10.8231 29.9156 10.8231 22.96V17.96C10.8231 11.0043 11.3675 10.46 18.3231 10.46ZM27.0695 12.96C26.3788 12.9618 25.8212 13.523 25.8231 14.2136C25.825 14.9042 26.3862 15.4618 27.0768 15.46C27.7674 15.4581 28.325 14.8969 28.3231 14.2063C28.3212 13.5157 27.7601 12.9581 27.0695 12.96ZM20.8085 14.21C17.3572 14.2181 14.565 17.0234 14.5731 20.4746C14.5812 23.9259 17.3865 26.7181 20.8378 26.71C24.289 26.7018 27.0812 23.8966 27.0731 20.4453C27.065 16.9941 24.2597 14.2018 20.8085 14.21ZM20.8146 16.71C22.8852 16.705 24.5681 18.3808 24.5731 20.4514C24.5775 22.522 22.9023 24.205 20.8317 24.21C18.761 24.215 17.0781 22.5398 17.0731 20.4685C17.0681 18.3979 18.744 16.715 20.8146 16.71Z" fill="white"/>
</svg>
