<svg width="37" height="37" viewBox="0 0 37 37" fill="none" xmlns="http://www.w3.org/2000/svg">
<g clip-path="url(#clip0_10_2654)">
<path d="M5.06836 10.1383C6.46336 8.59702 7.94461 7.13077 9.47461 5.72827L11.7659 7.91077L10.1159 9.51202L10.9334 10.3295L12.5684 8.73202L14.1621 10.322L12.5496 12.047L13.3746 12.8083L14.9871 11.147C15.7184 11.8783 16.4534 12.6095 17.1884 13.3445C15.6921 14.8445 14.1884 16.337 12.6959 17.8408C10.1684 15.257 7.51711 12.7933 5.06836 10.1383Z" fill="#F2BE7E"/>
<path d="M24.5721 8.35327C25.2921 7.69702 25.8771 6.80452 26.7959 6.41452C27.7746 6.31702 28.3109 7.32952 28.9821 7.86952C29.5221 8.54827 30.5534 9.08827 30.4409 10.0783C30.0396 10.9858 29.1659 11.5745 28.5096 12.2908C27.1934 10.982 25.8809 9.66952 24.5721 8.35327Z" fill="#F2BE7E"/>
<path d="M8.99835 23.9083C13.8621 19.097 18.6696 14.2333 23.5184 9.41077C24.8309 10.7233 26.1471 12.0283 27.4484 13.3483C22.7571 18.062 18.0284 22.742 13.3446 27.4708C11.7884 29.2483 9.38835 29.8108 7.3746 30.9095C6.71085 31.3895 5.5896 30.962 5.7546 30.047C6.05835 29.0533 6.6021 28.157 7.03335 27.2158C7.60335 26.0683 8.0271 24.7933 8.99835 23.9083Z" fill="#F2BE7E"/>
<path d="M19.0109 24.2008C20.4059 22.6595 21.8871 21.1933 23.4171 19.7908L25.7084 21.9733L24.0584 23.5745L24.8759 24.392L26.5109 22.7945L28.1046 24.3845L26.4921 26.1095L27.3171 26.8708L28.9296 25.2095C29.6609 25.9408 30.3959 26.672 31.1309 27.407C29.6346 28.907 28.1309 30.3995 26.6384 31.9033C24.1109 29.3195 21.4596 26.8558 19.0109 24.2008Z" fill="#F2BE7E"/>
</g>
<defs>
<clipPath id="clip0_10_2654">
<rect width="36" height="36" fill="white" transform="translate(0.0996094 0.815796)"/>
</clipPath>
</defs>
</svg>
