<svg width="36" height="37" viewBox="0 0 36 37" fill="none" xmlns="http://www.w3.org/2000/svg">
<path d="M15.1875 5.19702C9.60469 5.19702 5.0625 9.73921 5.0625 15.322C5.0625 20.9048 9.60469 25.447 15.1875 25.447C17.5102 25.447 19.646 24.6524 21.3563 23.3322L28.715 30.6908C29.2235 31.1993 30.0478 31.1993 30.5563 30.6908C31.0648 30.1823 31.0648 29.358 30.5563 28.8495L23.1976 21.4908C24.5179 19.7806 25.3125 17.6447 25.3125 15.322C25.3125 9.73921 20.7703 5.19702 15.1875 5.19702ZM15.1875 7.44702C19.5294 7.44702 23.0625 10.9801 23.0625 15.322C23.0625 19.664 19.5294 23.197 15.1875 23.197C10.8456 23.197 7.3125 19.664 7.3125 15.322C7.3125 10.9801 10.8456 7.44702 15.1875 7.44702Z" fill="#F2BE7E"/>
</svg>
