<svg width="36" height="37" viewBox="0 0 36 37" fill="none" xmlns="http://www.w3.org/2000/svg">
<g clip-path="url(#clip0_10_2656)">
<path d="M28.6538 18.6095C28.3725 16.5995 26.8425 14.762 24.6938 14.792C23.79 13.5395 22.3125 13.0445 20.8125 13.1945C19.935 11.9945 18.555 11.3683 17.0738 11.4695C17.0775 11.0608 17.085 10.6558 17.0925 10.247C18.2813 8.79951 18.6975 6.65076 17.595 5.03076C16.245 2.69451 12.5963 2.40576 10.8825 4.48326C9.39376 6.06951 9.60001 8.62701 10.9575 10.2283C11.0063 12.8833 10.9463 15.5383 10.9875 18.1933C10.0988 18.9058 9.17626 19.5845 8.38876 20.4133C6.96751 21.977 6.66751 24.4033 7.59376 26.2933C8.73751 28.727 10.1063 31.2395 12.4463 32.7208C15.33 34.757 19.245 35.0645 22.485 33.7408C24.8625 32.7695 26.7188 30.7633 27.7425 28.4345C29.145 25.3708 29.1075 21.8758 28.6538 18.6095ZM25.41 28.037C24.18 30.4783 21.615 32.192 18.8663 32.267C15.6263 32.552 12.4538 30.6208 10.9238 27.812C10.2788 26.6195 9.45376 25.4383 9.30751 24.0583C9.19876 22.8058 10.0575 21.8045 10.9463 21.047L10.9125 24.1558C10.8863 25.1683 11.3063 25.742 12.0675 25.742C12.885 25.7495 13.185 25.2883 13.1888 24.272L13.2375 7.31451C13.2375 6.84576 13.62 6.46701 14.085 6.46701C14.55 6.46701 14.9325 6.84576 14.9325 7.31451V17.882C14.955 18.9733 17.0288 18.947 17.0363 17.957L17.1075 13.697C17.6888 13.7233 18.5513 13.6708 18.7275 14.3758C19.0125 15.7933 18.9338 18.6808 18.9338 18.6808C19.2 19.5658 20.6888 19.5658 20.94 18.6583L20.9813 15.2758C21.5438 15.3508 22.4925 15.4145 22.68 16.0745C22.8338 17.1058 22.6688 18.1595 22.8375 19.1908C23.085 19.9745 24.285 20.1658 24.7538 19.4908C25.125 18.6958 25.0013 17.7808 25.0838 16.9333C25.9163 17.432 26.4263 18.2795 26.5013 19.2433C26.8125 22.1908 26.88 25.367 25.4063 28.037H25.41Z" fill="#F2BE7E"/>
</g>
<defs>
<clipPath id="clip0_10_2656">
<rect width="36" height="36" fill="white" transform="translate(0 0.815796)"/>
</clipPath>
</defs>
</svg>
