<svg width="36" height="37" viewBox="0 0 36 37" fill="none" xmlns="http://www.w3.org/2000/svg">
<g clip-path="url(#clip0_10_2655)">
<path d="M7.60501 7.75083C8.27251 7.41333 9.04501 7.46958 9.77251 7.43958C15.51 7.47333 21.2513 7.42833 26.9925 7.45833C28.7025 7.39458 30.33 8.86458 30.3263 10.5971C30.4763 15.4796 30.3038 20.3658 30.3825 25.2521C30.4913 27.1121 28.8938 28.8371 27.0188 28.8071C21.1313 28.8521 15.24 28.8183 9.34876 28.8221C7.54126 28.9683 5.67751 27.5433 5.67376 25.6608C5.59501 20.7671 5.60626 15.8733 5.62501 10.9796C5.57626 9.62958 6.36376 8.30583 7.60501 7.75083ZM8.37376 12.7008C7.80751 13.0233 7.90876 13.8183 7.86751 14.3771C7.89376 16.9983 7.85251 19.6233 7.90501 22.2446C7.93501 23.4708 7.70251 24.7346 8.00626 25.9383C8.31001 26.6021 9.11251 26.5683 9.72376 26.5833C15.3638 26.5646 21.0038 26.5871 26.6438 26.5721C27.4163 26.6771 28.215 26.1183 28.125 25.2821C28.1775 21.7796 28.0763 18.2733 28.1663 14.7671C28.1438 13.9346 28.2413 12.5396 27.0563 12.5283C21.42 12.4458 15.78 12.5508 10.14 12.4758C9.55126 12.4908 8.92501 12.4458 8.37376 12.7008Z" fill="#F2BE7E"/>
<path d="M16.26 14.8121H10.2112V24.2509H16.26V14.8121Z" fill="#F2BE7E"/>
<path d="M12.6675 10.8483C13.1542 10.8483 13.5488 10.4538 13.5488 9.96706C13.5488 9.48036 13.1542 9.08582 12.6675 9.08582C12.1808 9.08582 11.7863 9.48036 11.7863 9.96706C11.7863 10.4538 12.1808 10.8483 12.6675 10.8483Z" fill="white"/>
<path d="M9.8475 10.8483C10.3342 10.8483 10.7287 10.4538 10.7287 9.96706C10.7287 9.48036 10.3342 9.08582 9.8475 9.08582C9.3608 9.08582 8.96625 9.48036 8.96625 9.96706C8.96625 10.4538 9.3608 10.8483 9.8475 10.8483Z" fill="white"/>
<path d="M26.1188 9.08582H16.0725C15.5858 9.08582 15.1913 9.48036 15.1913 9.96706C15.1913 10.4538 15.5858 10.8483 16.0725 10.8483H26.1188C26.6055 10.8483 27 10.4538 27 9.96706C27 9.48036 26.6055 9.08582 26.1188 9.08582Z" fill="white"/>
<path d="M24.99 16.9534H19.4475C18.9608 16.9534 18.5663 17.3479 18.5663 17.8346C18.5663 18.3213 18.9608 18.7159 19.4475 18.7159H24.99C25.4767 18.7159 25.8713 18.3213 25.8713 17.8346C25.8713 17.3479 25.4767 16.9534 24.99 16.9534Z" fill="#F2BE7E"/>
<path d="M22.725 20.3284H19.4475C18.9608 20.3284 18.5663 20.7229 18.5663 21.2096C18.5663 21.6963 18.9608 22.0909 19.4475 22.0909H22.725C23.2117 22.0909 23.6063 21.6963 23.6063 21.2096C23.6063 20.7229 23.2117 20.3284 22.725 20.3284Z" fill="#F2BE7E"/>
</g>
<defs>
<clipPath id="clip0_10_2655">
<rect width="36" height="36" fill="white" transform="translate(0 0.134521)"/>
</clipPath>
</defs>
</svg>
