<svg width="40" height="41" viewBox="0 0 40 41" fill="none" xmlns="http://www.w3.org/2000/svg">
<path d="M19.9972 6.70996C12.4034 6.70996 6.24716 12.8662 6.24716 20.46C6.24716 23.0006 6.93919 25.3785 8.14169 27.4204L6.38144 34.0122L13.2955 32.4656C15.2786 33.575 17.5634 34.21 19.9972 34.21C27.5909 34.21 33.7472 28.0537 33.7472 20.46C33.7472 12.8662 27.5909 6.70996 19.9972 6.70996ZM19.9972 9.20996C26.2103 9.20996 31.2472 14.2468 31.2472 20.46C31.2472 26.6731 26.2103 31.71 19.9972 31.71C17.6653 31.71 15.4995 31.0005 13.7032 29.7861L9.86655 30.6443L10.8431 26.9846C9.52873 25.1434 8.74716 22.895 8.74716 20.46C8.74716 14.2468 13.784 9.20996 19.9972 9.20996ZM15.2926 14.0452C15.0632 14.0452 14.6945 14.1299 14.3807 14.4712C14.0726 14.8131 13.193 15.6342 13.193 17.313C13.193 18.9855 14.4078 20.6079 14.5785 20.8311C14.7491 21.0604 16.935 24.6095 20.4 25.9739C23.2725 27.1051 23.8594 26.881 24.4881 26.8223C25.1119 26.7685 26.5024 26.0017 26.7855 25.2073C27.068 24.4123 27.0677 23.7305 26.9796 23.5874C26.894 23.4487 26.6702 23.3625 26.3289 23.1919C25.9877 23.0206 24.3136 22.196 23.9998 22.0835C23.6905 21.971 23.4613 21.9119 23.2381 22.2532C23.0088 22.5944 22.3585 23.3624 22.1554 23.5862C21.9585 23.8156 21.7618 23.8423 21.4205 23.6716C21.0793 23.501 19.9819 23.1428 18.6812 21.981C17.6694 21.0803 16.986 19.965 16.7892 19.625C16.5917 19.2844 16.7675 19.0986 16.9381 18.928C17.0931 18.7792 17.2802 18.5328 17.4508 18.3359C17.6158 18.1334 17.674 17.9952 17.7865 17.7659C17.9046 17.5427 17.8446 17.3396 17.7596 17.1689C17.6752 16.9977 17.0136 15.3133 16.7098 14.6421C16.4548 14.0771 16.1882 14.0606 15.9432 14.0549C15.7451 14.0449 15.5157 14.0452 15.2926 14.0452Z" fill="white"/>
</svg>
